<svg xmlns="http://www.w3.org/2000/svg" xmlns:xlink="http://www.w3.org/1999/xlink" width="114" height="114" viewBox="0 0 114 114"><defs><style>.a{stroke:transparent;stroke-miterlimit:10;fill:url(#a)}</style><linearGradient id="a" x1=".066" x2=".902" y2="1" gradientUnits="objectBoundingBox"><stop offset="0" stop-color="#c00020"/><stop offset="1" stop-color="#ff5252"/></linearGradient></defs><path class="a" d="M-17191.459,113a14.143,14.143,0,0,1-14.127-14.123v-56.5A9.434,9.434,0,0,1-17215,32.96V28.251h.389C-17212,10.706-17194.639,0-17167.916,0h18.832c26.723,0,44.086,10.706,46.7,28.251h.389V32.96a9.434,9.434,0,0,1-9.414,9.414v56.5A14.143,14.143,0,0,1-17125.541,113Zm-4.709-14.123a4.714,4.714,0,0,0,4.709,4.7h65.918a4.714,4.714,0,0,0,4.709-4.7v-56.5h-9.42a9.431,9.431,0,0,1-9.414-9.414V28.251h-37.668V32.96a9.431,9.431,0,0,1-9.414,9.414h-9.42Zm65.916-80.044V32.96h18.838c0-21.848-28.83-23.542-37.67-23.542h-18.832c-8.84,0-37.67,1.694-37.67,23.542h18.838V18.833Zm-18.832,70.626V80.04h9.414v9.418Zm-14.123,0V80.04h9.414v9.418Zm-14.127,0V80.04h9.418v9.418Zm28.25-14.123V65.916h9.414v9.418Zm-14.123,0V65.916h9.414v9.418Zm-14.127,0V65.916h9.418v9.418Zm28.25-14.128V51.793h9.414v9.414Zm-14.123,0V51.793h9.414v9.414Zm-14.127,0V51.793h9.418v9.414Z" transform="translate(17215.5 0.5)"/></svg>